<?xml version="1.0" standalone="no"?>
<!DOCTYPE svg PUBLIC "-//W3C//DTD SVG 20010904//EN"
 "http://www.w3.org/TR/2001/REC-SVG-20010904/DTD/svg10.dtd">
<svg version="1.0" xmlns="http://www.w3.org/2000/svg"
 width="500.000000pt" height="500.000000pt" viewBox="0 0 500.000000 500.000000"
 preserveAspectRatio="xMidYMid meet">
<metadata>
Created by potrace 1.11, written by Peter Selinger 2001-2013
</metadata>
<g transform="translate(0.000000,500.000000) scale(0.100000,-0.100000)"
fill="#000000" stroke="none">
<path d="M2415 3815 c-198 -37 -391 -142 -542 -295 -75 -74 -188 -233 -200
-278 -4 -16 -10 -21 -22 -17 -9 4 -45 12 -79 18 -147 24 -315 -34 -431 -150
-134 -133 -187 -307 -147 -478 8 -33 14 -60 13 -60 -1 -1 -27 -19 -57 -41
-143 -106 -244 -251 -290 -416 -26 -93 -28 -289 -4 -387 52 -218 214 -411 432
-514 l67 -32 1290 0 1290 0 78 34 c259 111 446 327 518 596 30 111 30 325 0
437 -76 289 -290 521 -566 616 -33 11 -72 23 -87 26 -22 5 -27 13 -33 48 -64
412 -335 736 -720 862 -44 14 -109 30 -145 36 -89 14 -280 11 -365 -5z"/>
</g>
</svg>
